<?xml version="1.0" encoding="UTF-8" standalone="no"?>
<svg
   xmlns:dc="http://purl.org/dc/elements/1.1/"
   xmlns:cc="http://creativecommons.org/ns#"
   xmlns:rdf="http://www.w3.org/1999/02/22-rdf-syntax-ns#"
   xmlns:svg="http://www.w3.org/2000/svg"
   xmlns="http://www.w3.org/2000/svg"
   xmlns:sodipodi="http://sodipodi.sourceforge.net/DTD/sodipodi-0.dtd"
   xmlns:inkscape="http://www.inkscape.org/namespaces/inkscape"
   version="1.1"
   id="svg11459"
   viewBox="0 0 59.596045 187.15557"
   height="52.819462mm"
   width="16.819328mm"
   inkscape:version="0.91 r13725"
   sodipodi:docname="guitar.svg">
  <sodipodi:namedview
     pagecolor="#ffffff"
     bordercolor="#666666"
     borderopacity="1"
     objecttolerance="10"
     gridtolerance="10"
     guidetolerance="10"
     inkscape:pageopacity="0"
     inkscape:pageshadow="2"
     inkscape:window-width="1680"
     inkscape:window-height="987"
     id="namedview12177"
     showgrid="false"
     inkscape:zoom="5.0439321"
     inkscape:cx="-13.469716"
     inkscape:cy="104.68721"
     inkscape:window-x="-8"
     inkscape:window-y="-8"
     inkscape:window-maximized="1"
     inkscape:current-layer="svg11459" />
  <defs
     id="defs11461" />
  <metadata
     id="metadata11464">
    <rdf:RDF>
      <cc:Work
         rdf:about="">
        <dc:format>image/svg+xml</dc:format>
        <dc:type
           rdf:resource="http://purl.org/dc/dcmitype/StillImage" />
        <dc:title />
      </cc:Work>
    </rdf:RDF>
  </metadata>
  <path
     inkscape:connector-curvature="0"
     id="path4148"
     style="fill:#100f0d;fill-opacity:1;fill-rule:nonzero;stroke:none"
     d="m 53.54729,148.68527 c -4.825,-10.97875 -2.655,-11.34 0.72375,-20.39125 3.37875,-9.05 -0.24,-16.40875 -3.37875,-15.56375 -3.1375,0.8425 -2.17,2.89375 -3.74125,6.03 -1.5675,3.1375 -3.13625,5.07125 -7.11625,5.07125 -3.98375,0 -5.5525,-2.295 -5.5525,-2.295 l -0.845,-86.51375 c 1.56875,-4.46625 6.99875,-6.03375 7.12125,-6.39625 -0.48375,-7.48125 -1.81,-8.8075 -3.25875,-11.70375 -1.44875,-2.89625 -1.2075,-5.30875 1.44875,-6.27375 2.65375,-0.96625 4.58375,-6.63625 0.96375,-9.4125 -3.62,-2.775 -7.8425,-0.3625 -8.68625,2.1725 -0.13625,0.405 -0.4275,1.38875 -0.82125,2.75625 l -1.06375,-0.6 c 0,0 0.1575,-0.43 -0.47625,-0.95 -0.63375,-0.52125 -1.40375,-0.63375 -1.72125,-0.3625 -0.23625,0.205 -0.84375,1.06875 0.43125,1.71875 1.0625,0.545 1.53875,0.1525 1.53875,0.1525 l 1.125,0.61375 c -0.32,1.10875 -0.695,2.41875 -1.1,3.8525 l -0.885,-0.5 c 0,0 0.15875,-0.43 -0.475,-0.95 -0.635,-0.52 -1.4025,-0.63375 -1.72,-0.3625 -0.23875,0.20625 -0.845,1.06875 0.43125,1.72125 1.0625,0.5425 1.53875,0.15 1.53875,0.15 l 0.9475,0.5175 c -0.37,1.30625 -0.7625,2.6975 -1.16125,4.11625 l -0.7825,-0.44125 c 0,0 0.15875,-0.43 -0.475,-0.95125 -0.6325,-0.52 -1.40375,-0.6325 -1.72125,-0.36125 -0.23875,0.205 -0.84375,1.06875 0.43125,1.71875 1.06375,0.545 1.53875,0.15125 1.53875,0.15125 l 0.845,0.4625 c -0.36625,1.31 -0.7375,2.63375 -1.09875,3.92875 l -0.8325,-0.46875 c 0,0 0.15625,-0.43125 -0.475,-0.95125 -0.6325,-0.52 -1.4025,-0.6325 -1.71875,-0.36125 -0.24125,0.205 -0.84625,1.06875 0.42875,1.71875 1.06375,0.5425 1.53875,0.15125 1.53875,0.15125 l 0.89625,0.48875 c -0.38375,1.3775 -0.7575,2.71125 -1.10125,3.94375 l -0.745,-0.42 c 0,0 0.15875,-0.43 -0.475,-0.95 -0.63375,-0.52125 -1.40375,-0.63375 -1.71875,-0.3625 -0.24125,0.205 -0.8475,1.0675 0.42875,1.72 1.06375,0.5425 1.5375,0.15 1.5375,0.15 l 0.8125,0.4425 c -0.425,1.5175 -0.79875,2.86125 -1.08875,3.90875 l -0.76375,-0.43 c 0,0 0.15875,-0.42875 -0.47375,-0.94875 -0.63375,-0.52125 -1.405,-0.635 -1.71875,-0.3625 -0.2425,0.205 -0.8475,1.0675 0.4275,1.71875 1.06375,0.54375 1.53875,0.15125 1.53875,0.15125 l 0.8275,0.45125 c -0.31125,1.1175 -0.495,1.78 -0.495,1.78 l 2.4125,3.9825 -1.44625,77.5875 c 0,0 -2.05375,3.37625 -6.2775,2.5325 -4.22125,-0.845 -6.03125,-5.55 -6.15125,-10.37625 -0.12125,-4.8275 -5.6725,-5.91375 -7.965,2.65375 -2.2925,8.56625 1.81,16.53 2.77625,21.115 0.96375,4.585 1.68875,7.6025 1.20625,12.1875 -0.48375,4.585 -3.25875,6.8775 -5.91375,15.3225 -2.65375,8.4475 -3.015,14.84125 0.845,20.27125 3.8625,5.4325 9.775,7.6025 13.9975,8.93125 4.2225,1.325 12.3075,1.4475 12.3075,1.4475 8.92875,0.7225 22.27375,1.3575 28.47625,-10.015 4.345,-7.96625 0.725,-17.13375 -4.1025,-28.115" />
  <rect
     style="opacity:1;fill:#000000;fill-opacity:1;stroke:#ffffff;stroke-width:0.60000002;stroke-linecap:round;stroke-linejoin:miter;stroke-miterlimit:4;stroke-dasharray:none;stroke-dashoffset:0;stroke-opacity:1"
     id="rect12137"
     width="12.248099"
     height="4.4194174"
     x="23.486057"
     y="133.68062"
     rx="0.35274118"
     ry="4.4194174" />
  <rect
     style="opacity:1;fill:#000000;fill-opacity:1;stroke:#ffffff;stroke-width:0.60000002;stroke-linecap:round;stroke-linejoin:miter;stroke-miterlimit:4;stroke-dasharray:none;stroke-dashoffset:0;stroke-opacity:1"
     id="rect12137-0"
     width="12.248099"
     height="4.4194174"
     x="24.117405"
     y="145.29738"
     rx="0.35274118"
     ry="4.4194174" />
  <path
     inkscape:connector-curvature="0"
     style="fill:none;fill-rule:evenodd;stroke:#ffffff;stroke-width:0.60000002;stroke-linecap:butt;stroke-linejoin:miter;stroke-miterlimit:4;stroke-dasharray:none;stroke-opacity:1"
     d="M 26.8953,30.58193 25.072835,161.31776"
     id="path12013"
     sodipodi:nodetypes="cc" />
  <path
     inkscape:connector-curvature="0"
     style="fill:none;fill-rule:evenodd;stroke:#ffffff;stroke-width:0.60000002;stroke-linecap:butt;stroke-linejoin:miter;stroke-miterlimit:4;stroke-dasharray:none;stroke-opacity:1"
     d="M 28.158,25.65743 26.615914,161.31776"
     id="path12013-0"
     sodipodi:nodetypes="cc" />
  <path
     inkscape:connector-curvature="0"
     style="fill:none;fill-rule:evenodd;stroke:#ffffff;stroke-width:0.60000002;stroke-linecap:butt;stroke-linejoin:miter;stroke-miterlimit:4;stroke-dasharray:none;stroke-opacity:1"
     d="M 29.19972,20.51197 28.498772,161.31776"
     id="path12013-0-7"
     sodipodi:nodetypes="cc" />
  <path
     inkscape:connector-curvature="0"
     style="fill:none;fill-rule:evenodd;stroke:#ffffff;stroke-width:0.60000002;stroke-linecap:butt;stroke-linejoin:miter;stroke-miterlimit:4;stroke-dasharray:none;stroke-opacity:1"
     d="m 29.915571,16.02941 0.560758,145.28835"
     id="path12013-0-3"
     sodipodi:nodetypes="cc" />
  <path
     inkscape:connector-curvature="0"
     style="fill:none;fill-rule:evenodd;stroke:#ffffff;stroke-width:0.60000002;stroke-linecap:butt;stroke-linejoin:miter;stroke-miterlimit:4;stroke-dasharray:none;stroke-opacity:1"
     d="m 31.40944,11.10491 0.841138,150.21285"
     id="path12013-0-1"
     sodipodi:nodetypes="cc" />
  <path
     inkscape:connector-curvature="0"
     style="fill:none;fill-rule:evenodd;stroke:#ffffff;stroke-width:0.60000002;stroke-linecap:butt;stroke-linejoin:miter;stroke-miterlimit:4;stroke-dasharray:none;stroke-opacity:1"
     d="m 32.54586,6.90648 1.121517,154.41128"
     id="path12013-0-2"
     sodipodi:nodetypes="cc" />
  <path
     inkscape:connector-curvature="0"
     style="fill:none;fill-rule:evenodd;stroke:#ffffff;stroke-width:1px;stroke-linecap:butt;stroke-linejoin:miter;stroke-opacity:1"
     d="m 25.511067,44.99062 8.220479,0"
     id="path12063"
     sodipodi:nodetypes="cc" />
  <path
     inkscape:connector-curvature="0"
     style="fill:none;fill-rule:evenodd;stroke:#ffffff;stroke-width:1px;stroke-linecap:butt;stroke-linejoin:miter;stroke-opacity:1"
     d="m 25.411938,52.32826 8.418737,0"
     id="path12063-2"
     sodipodi:nodetypes="cc" />
  <path
     inkscape:connector-curvature="0"
     style="fill:none;fill-rule:evenodd;stroke:#ffffff;stroke-width:1px;stroke-linecap:butt;stroke-linejoin:miter;stroke-opacity:1"
     d="m 25.312809,59.66589 8.567431,0"
     id="path12063-2-3"
     sodipodi:nodetypes="cc" />
  <path
     inkscape:connector-curvature="0"
     style="fill:none;fill-rule:evenodd;stroke:#ffffff;stroke-width:1px;stroke-linecap:butt;stroke-linejoin:miter;stroke-opacity:1"
     d="m 25.114551,67.00353 8.815253,0"
     id="path12063-2-6"
     sodipodi:nodetypes="cc" />
  <path
     inkscape:connector-curvature="0"
     style="fill:none;fill-rule:evenodd;stroke:#ffffff;stroke-width:1px;stroke-linecap:butt;stroke-linejoin:miter;stroke-opacity:1"
     d="m 24.916293,74.34117 9.063076,0"
     id="path12063-2-5"
     sodipodi:nodetypes="cc" />
  <path
     inkscape:connector-curvature="0"
     style="fill:none;fill-rule:evenodd;stroke:#ffffff;stroke-width:1px;stroke-linecap:butt;stroke-linejoin:miter;stroke-opacity:1"
     d="m 24.718035,89.01645 9.558721,0"
     id="path12063-2-2"
     sodipodi:nodetypes="cc" />
  <path
     inkscape:connector-curvature="0"
     style="fill:none;fill-rule:evenodd;stroke:#ffffff;stroke-width:1px;stroke-linecap:butt;stroke-linejoin:miter;stroke-opacity:1"
     d="m 24.420648,103.69172 10.004801,0"
     id="path12063-2-39"
     sodipodi:nodetypes="cc" />
  <path
     inkscape:connector-curvature="0"
     style="fill:none;fill-rule:evenodd;stroke:#ffffff;stroke-width:1px;stroke-linecap:butt;stroke-linejoin:miter;stroke-opacity:1"
     d="m 24.569342,96.35408 9.707414,0"
     id="path12063-2-32"
     sodipodi:nodetypes="cc" />
  <path
     inkscape:connector-curvature="0"
     style="fill:none;fill-rule:evenodd;stroke:#ffffff;stroke-width:1px;stroke-linecap:butt;stroke-linejoin:miter;stroke-opacity:1"
     d="m 24.7676,81.67881 9.509156,0"
     id="path12063-2-4"
     sodipodi:nodetypes="cc" />
  <path
     inkscape:connector-curvature="0"
     style="fill:none;fill-rule:evenodd;stroke:#ffffff;stroke-width:1px;stroke-linecap:butt;stroke-linejoin:miter;stroke-opacity:1"
     d="m 25.75889,37.65299 7.57614,0"
     id="path12063-2-22" />
  <path
     inkscape:connector-curvature="0"
     style="fill:none;fill-rule:evenodd;stroke:#ffffff;stroke-width:1px;stroke-linecap:butt;stroke-linejoin:miter;stroke-opacity:1"
     d="m 24.339786,108.44713 10.004801,0"
     id="path12063-2-39-9"
     sodipodi:nodetypes="cc" />
  <path
     inkscape:connector-curvature="0"
     style="fill:none;fill-rule:evenodd;stroke:#ffffff;stroke-width:1px;stroke-linecap:butt;stroke-linejoin:miter;stroke-opacity:1"
     d="m 24.240658,113.99836 10.004801,0"
     id="path12063-2-39-9-1"
     sodipodi:nodetypes="cc" />
  <path
     inkscape:connector-curvature="0"
     style="fill:none;fill-rule:evenodd;stroke:#ffffff;stroke-width:1px;stroke-linecap:butt;stroke-linejoin:miter;stroke-opacity:1"
     d="m 24.637173,119.15307 10.004801,0"
     id="path12063-2-39-9-1-2"
     sodipodi:nodetypes="cc" />
</svg>
