<?xml version="1.0" encoding="UTF-8" standalone="no"?>
<svg
   xmlns:dc="http://purl.org/dc/elements/1.1/"
   xmlns:cc="http://creativecommons.org/ns#"
   xmlns:rdf="http://www.w3.org/1999/02/22-rdf-syntax-ns#"
   xmlns:svg="http://www.w3.org/2000/svg"
   xmlns="http://www.w3.org/2000/svg"
   version="1.1"
   id="svg2"
   viewBox="0 0 126.70726 26.743062"
   height="26.743061"
   width="126.70726">
  <defs
     id="defs4" />
  <metadata
     id="metadata7">
    <rdf:RDF>
      <cc:Work
         rdf:about="">
        <dc:format>image/svg+xml</dc:format>
        <dc:type
           rdf:resource="http://purl.org/dc/dcmitype/StillImage" />
        <dc:title></dc:title>
      </cc:Work>
    </rdf:RDF>
  </metadata>
  <g
     transform="translate(-276.66227,-525.07948)"
     style="display:inline;opacity:1"
     id="layer2" />
  <g
     transform="translate(-276.66227,-525.07948)"
     style="display:inline"
     id="layer3">
    <g
       transform="matrix(0.56351782,0,0,0.56351782,148.41088,235.02427)"
       id="g4184">
      <path
         transform="translate(-3.5654606e-6,-2.587191e-6)"
         style="display:inline;opacity:1;fill:#ffffff;fill-opacity:1;fill-rule:evenodd;stroke:#000000;stroke-width:1px;stroke-linecap:butt;stroke-linejoin:miter;stroke-opacity:1"
         d="m 271.73104,545.7707 c -17.65837,1.62384 -43.3515,-6.69541 -43.18403,-8.46003 0.16747,-1.76462 -0.94741,-5.51325 1.01016,-10.6066 1.95756,-5.09335 9.62282,-9.88745 17.04632,-10.85914 7.4235,-0.97169 9.7074,-0.60505 17.67767,-0.25253 7.97027,0.35252 9.99634,2.30055 14.14213,2.96732 4.1458,0.66678 8.54023,2.04902 14.77349,1.6415 6.23326,-0.40752 15.13151,-2.76736 18.30901,-3.4724 3.1775,-0.70504 10.75133,-0.27297 13.76333,-0.25254 3.012,0.0204 6.71105,1.35501 9.34391,3.03046 l -0.12627,7.95495 c 0,0 -14.91905,-0.36115 -13.88959,5.93464 1.35594,1.70591 3.14031,1.90331 6.61643,2.42078 3.47613,0.51747 12.51333,0.48341 12.51333,0.48341 l 72.77245,1.62749 c 0.50405,-0.60608 0.58035,-1.28345 1.72313,-1.78307 2.31238,-0.57546 4.57113,1.10763 6.88351,1.24681 l 28.78935,5.80838 c 2.38839,0.46104 3.18088,4.91422 -0.36425,4.97286 l -34.8635,-3.41244 -2.52538,1.01015 -92.93404,-0.25254 0.12216,10.95118 -23.79465,-2.85714 z"
         id="path4150" />
      <path
         transform="translate(-3.5654606e-6,-2.587191e-6)"
         style="display:inline;opacity:1;fill:#000000;fill-opacity:1;fill-rule:evenodd;stroke:#000000;stroke-width:1px;stroke-linecap:butt;stroke-linejoin:miter;stroke-opacity:1"
         d="m 319.16016,537.97364 c -2.43537,0.18846 -3.31797,0.0244 -4.22266,-0.92286 -0.72005,-0.61092 -0.25953,-1.80342 0.35547,-2.77148 0.82797,-1.40686 1.92495,-3.01185 4.95703,-3.91407 3.66144,-0.33659 6.29424,-0.33027 10.98438,-1.00976 5.18572,-1.31555 3.35575,-2.03211 0.34765,-3.0293 -4.81976,-1.58083 -9.26699,-1.29827 -13.76367,-1.26367 -7.16474,0.66838 -15.52077,2.22916 -24.36914,3.53516 -8.67565,-0.03 -16.43435,-2.19838 -24.11719,-4.54493 -7.46374,-2.07625 -12.48815,-1.71351 -18.43555,-2.27343 -11.77647,0.3029 -18.58746,5.44638 -22.3496,15.7832 -0.91048,5.94131 -0.43893,9.46661 1.13671,14.26953 2.25749,4.4764 6.47643,9.65851 13.50977,9.84766 5.2891,0 11.44654,-0.88281 16.41602,-0.88281 3.65337,-0.41773 6.35394,-0.36917 11.23828,-1.38868 5.17905,-1.51321 11.5015,-3.14608 17.67773,-3.66211 l 8.96484,0.88282 c 6.01533,1.81939 12.54,2.75006 19.19336,1.39062 2.91141,-0.57111 3.85519,-1.64294 0.88282,-2.9043 -4.54805,-0.758 -6.8139,-0.73814 -11.11133,-2.65234 -2.41497,-3.31019 -0.55292,-5.74867 1.38867,-6.94531 l 11.36621,0.12011 93.08572,-0.45993 c 4.09914,-0.27832 6.84858,-0.28726 8.55979,3.24412 4.39573,-0.64126 10.08153,-1.66879 16.60351,-2.14649 l 4.98829,0.50586 c 1.12832,1.93306 2.87252,2.81883 5.68164,1.89453 6.41665,-1.819 1.90798,-3.60047 0.25195,-4.16797 -22.1745,-4.64774 -26.24714,-4.09197 -29.92578,-5.68164 -0.91966,-0.39742 -1.80964,-0.70788 -2.49164,-0.74526 -2.04597,-0.11211 -2.84709,1.45885 -2.84709,1.45885 z"
         id="path4148" />
      <g
         id="g4163">
        <ellipse
           ry="1.767767"
           rx="1.8061967"
           cy="551.45282"
           cx="245.24609"
           id="path4153"
           style="opacity:1;fill:#ffffff;fill-opacity:1;stroke:none;stroke-width:12.5;stroke-linecap:round;stroke-linejoin:miter;stroke-miterlimit:4;stroke-dasharray:none;stroke-dashoffset:0;stroke-opacity:1" />
        <ellipse
           style="opacity:1;fill:#ffffff;fill-opacity:1;stroke:none;stroke-width:12.5;stroke-linecap:round;stroke-linejoin:miter;stroke-miterlimit:4;stroke-dasharray:none;stroke-dashoffset:0;stroke-opacity:1"
           id="ellipse4155"
           cx="250.99133"
           cy="551.45282"
           rx="1.8061967"
           ry="1.767767" />
        <ellipse
           ry="1.767767"
           rx="1.8061967"
           cy="551.45282"
           cx="256.73657"
           id="ellipse4157"
           style="opacity:1;fill:#ffffff;fill-opacity:1;stroke:none;stroke-width:12.5;stroke-linecap:round;stroke-linejoin:miter;stroke-miterlimit:4;stroke-dasharray:none;stroke-dashoffset:0;stroke-opacity:1" />
        <ellipse
           ry="0.8523162"
           rx="1.8940361"
           cy="536.01642"
           cx="421.04422"
           id="path4161"
           style="opacity:1;fill:#000000;fill-opacity:1;stroke:none;stroke-width:12.5;stroke-linecap:round;stroke-linejoin:miter;stroke-miterlimit:4;stroke-dasharray:none;stroke-dashoffset:0;stroke-opacity:1" />
        <ellipse
           style="opacity:1;fill:#000000;fill-opacity:1;stroke:none;stroke-width:12.5;stroke-linecap:round;stroke-linejoin:miter;stroke-miterlimit:4;stroke-dasharray:none;stroke-dashoffset:0;stroke-opacity:1"
           id="ellipse4163"
           cx="426.47382"
           cy="537.08966"
           rx="1.8940361"
           ry="0.8523162" />
        <ellipse
           ry="0.8523162"
           rx="1.8940361"
           cy="538.09985"
           cx="431.71399"
           id="ellipse4165"
           style="opacity:1;fill:#000000;fill-opacity:1;stroke:none;stroke-width:12.5;stroke-linecap:round;stroke-linejoin:miter;stroke-miterlimit:4;stroke-dasharray:none;stroke-dashoffset:0;stroke-opacity:1" />
        <ellipse
           style="opacity:1;fill:#000000;fill-opacity:1;stroke:none;stroke-width:12.5;stroke-linecap:round;stroke-linejoin:miter;stroke-miterlimit:4;stroke-dasharray:none;stroke-dashoffset:0;stroke-opacity:1"
           id="ellipse4167"
           cx="436.82788"
           cy="539.11005"
           rx="1.8940361"
           ry="0.8523162" />
        <ellipse
           ry="0.8523162"
           rx="1.8940361"
           cy="540.05707"
           cx="441.87866"
           id="ellipse4169"
           style="opacity:1;fill:#000000;fill-opacity:1;stroke:none;stroke-width:12.5;stroke-linecap:round;stroke-linejoin:miter;stroke-miterlimit:4;stroke-dasharray:none;stroke-dashoffset:0;stroke-opacity:1" />
        <ellipse
           style="opacity:1;fill:#000000;fill-opacity:1;stroke:none;stroke-width:12.5;stroke-linecap:round;stroke-linejoin:miter;stroke-miterlimit:4;stroke-dasharray:none;stroke-dashoffset:0;stroke-opacity:1"
           id="ellipse4171"
           cx="446.5506"
           cy="541.13037"
           rx="1.8940361"
           ry="0.8523162" />
        <rect
           transform="matrix(1,0,-0.17005203,0.98543509,0,0)"
           rx="0.96600902"
           ry="1.0891505"
           y="543.52234"
           x="382.56573"
           height="12.172858"
           width="7.1760669"
           id="rect4177"
           style="opacity:1;fill:#ffffff;fill-opacity:1;stroke:none;stroke-width:12.5;stroke-linecap:round;stroke-linejoin:miter;stroke-miterlimit:4;stroke-dasharray:none;stroke-dashoffset:0;stroke-opacity:1" />
        <rect
           style="opacity:1;fill:#ffffff;fill-opacity:1;stroke:none;stroke-width:12.5;stroke-linecap:round;stroke-linejoin:miter;stroke-miterlimit:4;stroke-dasharray:none;stroke-dashoffset:0;stroke-opacity:1"
           id="rect4180"
           width="7.1760669"
           height="12.416713"
           x="416.54733"
           y="554.54126"
           ry="1.1109692"
           rx="0.96600902"
           transform="matrix(1,0,-0.25823588,0.9660819,0,0)" />
        <path
           id="path4182"
           d="m 254.44115,537.90504 158.09324,1.98332"
           style="fill:none;fill-rule:evenodd;stroke:#ffffff;stroke-width:0.30000001;stroke-linecap:butt;stroke-linejoin:miter;stroke-miterlimit:4;stroke-dasharray:none;stroke-opacity:1" />
        <path
           style="fill:none;fill-rule:evenodd;stroke:#ffffff;stroke-width:0.30000001;stroke-linecap:butt;stroke-linejoin:miter;stroke-miterlimit:4;stroke-dasharray:none;stroke-opacity:1"
           d="M 254.12865,539.29923 412.53439,540.998"
           id="path4184" />
        <path
           id="path4186"
           d="m 253.54829,540.69342 158.9861,1.41422"
           style="fill:none;fill-rule:evenodd;stroke:#ffffff;stroke-width:0.30000001;stroke-linecap:butt;stroke-linejoin:miter;stroke-miterlimit:4;stroke-dasharray:none;stroke-opacity:1" />
        <path
           style="fill:none;fill-rule:evenodd;stroke:#ffffff;stroke-width:0.30000001;stroke-linecap:butt;stroke-linejoin:miter;stroke-miterlimit:4;stroke-dasharray:none;stroke-opacity:1"
           d="m 252.96793,542.08762 159.56646,1.12966"
           id="path4188" />
        <path
           id="path4190"
           d="m 252.5215,543.48181 160.01289,0.8451"
           style="fill:none;fill-rule:evenodd;stroke:#ffffff;stroke-width:0.30000001;stroke-linecap:butt;stroke-linejoin:miter;stroke-miterlimit:4;stroke-dasharray:none;stroke-opacity:1" />
        <path
           style="fill:none;fill-rule:evenodd;stroke:#ffffff;stroke-width:0.30000001;stroke-linecap:butt;stroke-linejoin:miter;stroke-miterlimit:4;stroke-dasharray:none;stroke-opacity:1"
           d="m 251.80722,544.876 160.72717,0.56055"
           id="path4192" />
      </g>
    </g>
  </g>
</svg>
