<?xml version="1.0" encoding="UTF-8" standalone="no"?>
<svg
   xmlns:dc="http://purl.org/dc/elements/1.1/"
   xmlns:cc="http://creativecommons.org/ns#"
   xmlns:rdf="http://www.w3.org/1999/02/22-rdf-syntax-ns#"
   xmlns:svg="http://www.w3.org/2000/svg"
   xmlns="http://www.w3.org/2000/svg"
   version="1.1"
   id="svg7329"
   viewBox="0 0 332.77591 119.27"
   height="33.660645"
   width="93.916756">
  <defs
     id="defs7331" />
  <metadata
     id="metadata7334">
    <rdf:RDF>
      <cc:Work
         rdf:about="">
        <dc:format>image/svg+xml</dc:format>
        <dc:type
           rdf:resource="http://purl.org/dc/dcmitype/StillImage" />
        <dc:title></dc:title>
      </cc:Work>
    </rdf:RDF>
  </metadata>
  <g
     transform="translate(-257.31834,-228.58507)"
     id="layer1">
    <g
       transform="matrix(1.25,0,0,-1.25,180.6236,732.42828)"
       id="g7124">
      <path
         id="path4404"
         style="fill:#ffffff;fill-opacity:1;fill-rule:nonzero;stroke:none"
         d="m 194.98745,399.07657 c 0.116,-0.192 0.164,-0.405 0.152,-0.615 -0.402,0.72 -1.239,2.334 -2.074,4.613 1.003,-2.512 1.911,-3.981 1.922,-3.998" />
      <path
         id="path4406"
         style="fill:#100f0d;fill-opacity:1;fill-rule:evenodd;stroke:none"
         d="m 65.833954,401.57257 256.797496,1.324 c 2.476,0.014 4.513,-1.963 4.527,-4.393 l 0.4,-77.662 c 0.012,-2.431 -2.004,-4.427 -4.48,-4.441 l -256.798396,-1.324 c -2.4766,-0.014 -4.5113,1.965 -4.5242,4.394 l -0.4,77.66 c -0.0129,2.428 2.0027,4.428 4.4781,4.442" />
      <path
         id="path4408"
         style="fill:#100f0d;fill-opacity:1;fill-rule:evenodd;stroke:none"
         d="m 65.846054,399.35557 256.798396,1.328 c 2.475,0.01 4.51,-2.002 4.526,-4.482 l 0.406,-79.098 c 0.014,-2.474 -2.002,-4.512 -4.477,-4.523 l -256.798696,-1.328 c -2.4754,-0.012 -4.5117,2.002 -4.525,4.482 l -0.4078,79.098 c -0.0125,2.474 2.0008,4.509 4.4781,4.523" />
      <path
         id="path4410"
         style="fill:#ffffff;fill-opacity:1;fill-rule:evenodd;stroke:none"
         d="m 315.52545,395.60957 c 2.682,-1.688 3.492,-5.141 1.813,-7.713 -1.678,-2.576 -5.209,-3.289 -7.891,-1.601 -2.68,1.689 -3.492,5.138 -1.814,7.712 1.679,2.575 5.211,3.291 7.892,1.602" />
      <path
         id="path4412"
         style="fill:#ffffff;fill-opacity:1;fill-rule:evenodd;stroke:none"
         d="m 315.02545,394.84557 c 2.244,-1.416 2.92,-4.297 1.518,-6.449 -1.403,-2.15 -4.358,-2.748 -6.598,-1.336 -2.242,1.41 -2.92,4.297 -1.516,6.445 1.403,2.153 4.358,2.752 6.596,1.34" />
      <path
         id="path4414"
         style="fill:#100f0d;fill-opacity:1;fill-rule:evenodd;stroke:none"
         d="m 314.55845,394.12757 c 1.827,-1.151 2.379,-3.504 1.235,-5.26 -1.145,-1.754 -3.551,-2.24 -5.377,-1.09 -1.828,1.15 -2.383,3.504 -1.24,5.256 1.146,1.758 3.554,2.244 5.382,1.094" />
      <path
         id="path4416"
         style="fill:#ffffff;fill-opacity:1;fill-rule:evenodd;stroke:none"
         d="m 317.07045,387.51557 c -0.074,-0.135 -0.154,-0.269 -0.238,-0.4 -1.68,-2.57 -5.213,-3.289 -7.895,-1.6 -2.679,1.686 -3.492,5.145 -1.812,7.713 0.086,0.133 0.174,0.262 0.271,0.381 -1.353,-2.522 -0.494,-5.711 2.051,-7.314 2.543,-1.602 5.856,-1.04 7.623,1.22" />
      <path
         id="path4418"
         style="fill:#100f0d;fill-opacity:1;fill-rule:evenodd;stroke:none"
         d="m 319.73045,312.56257 -250.062496,-1.291 -0.3575,69.418 250.060996,1.291 0.359,-69.418" />
      <path
         id="path4420"
         style="fill:#ffffff;fill-opacity:1;fill-rule:evenodd;stroke:none"
         d="m 319.73045,308.94957 -250.043396,-1.291 -0.3598,69.613 250.044196,1.289 0.359,-69.611" />
      <path
         id="path4422"
         style="fill:#100f0d;fill-opacity:1;fill-rule:evenodd;stroke:none"
         d="m 78.178854,377.31657 8.3871,0.043 0.2332,-45.285 -8.3847,-0.041 -0.2356,45.283" />
      <path
         id="path4424"
         style="fill:#100f0d;fill-opacity:1;fill-rule:evenodd;stroke:none"
         d="m 160.62445,377.74257 8.384,0.043 0.233,-45.281 -8.385,-0.045 -0.232,45.283" />
      <path
         id="path4426"
         style="fill:#100f0d;fill-opacity:1;fill-rule:evenodd;stroke:none"
         d="m 243.81345,378.17157 8.387,0.045 0.234,-45.285 -8.386,-0.041 -0.235,45.281" />
      <path
         id="path4428"
         style="fill:#100f0d;fill-opacity:1;fill-rule:evenodd;stroke:none"
         d="m 113.60545,377.49857 8.3843,0.043 0.234,-45.28 -8.3855,-0.045 -0.2328,45.282" />
      <path
         id="path4430"
         style="fill:#100f0d;fill-opacity:1;fill-rule:evenodd;stroke:none"
         d="m 196.04845,377.92357 8.385,0.045 0.232,-45.283 -8.383,-0.043 -0.234,45.281" />
      <path
         id="path4432"
         style="fill:#100f0d;fill-opacity:1;fill-rule:evenodd;stroke:none"
         d="m 279.23745,378.35357 8.386,0.043 0.235,-45.281 -8.386,-0.043 -0.235,45.281" />
      <path
         id="path4434"
         style="fill:#100f0d;fill-opacity:1;fill-rule:evenodd;stroke:none"
         d="m 89.905054,377.37557 8.3867,0.045 0.2336,-45.282 -8.3867,-0.045 -0.2336,45.282" />
      <path
         id="path4436"
         style="fill:#100f0d;fill-opacity:1;fill-rule:evenodd;stroke:none"
         d="m 172.34945,377.80057 8.385,0.045 0.232,-45.283 -8.384,-0.045 -0.233,45.283" />
      <path
         id="path4438"
         style="fill:#100f0d;fill-opacity:1;fill-rule:evenodd;stroke:none"
         d="m 255.54045,378.23057 8.384,0.043 0.234,-45.281 -8.387,-0.043 -0.231,45.281" />
      <path
         id="path4440"
         style="fill:#100f0d;fill-opacity:1;fill-rule:evenodd;stroke:none"
         d="m 125.33005,377.56057 8.3874,0.041 0.232,-45.281 -8.3858,-0.043 -0.2336,45.283" />
      <path
         id="path4442"
         style="fill:#100f0d;fill-opacity:1;fill-rule:evenodd;stroke:none"
         d="m 207.77345,377.98657 8.385,0.043 0.233,-45.283 -8.384,-0.043 -0.234,45.283" />
      <path
         id="path4444"
         style="fill:#100f0d;fill-opacity:1;fill-rule:evenodd;stroke:none"
         d="m 290.96545,378.41457 8.384,0.043 0.236,-45.282 -8.389,-0.043 -0.231,45.282" />
      <path
         id="path4446"
         style="fill:#100f0d;fill-opacity:1;fill-rule:evenodd;stroke:none"
         d="m 137.44345,377.62157 8.385,0.043 0.232,-45.283 -8.385,-0.042 -0.232,45.282" />
      <path
         id="path4448"
         style="fill:#100f0d;fill-opacity:1;fill-rule:evenodd;stroke:none"
         d="m 219.88445,378.04857 8.389,0.041 0.233,-45.283 -8.389,-0.041 -0.233,45.283" />
      <path
         id="path4450"
         style="fill:#100f0d;fill-opacity:1;fill-rule:evenodd;stroke:none"
         d="m 303.07845,378.47857 8.385,0.041 0.232,-45.281 -8.385,-0.045 -0.232,45.285" />
      <path
         id="path4452"
         style="fill:#100f0d;fill-opacity:1;fill-rule:nonzero;stroke:none"
         d="m 82.496054,307.72257 -0.3606,69.614 -0.8957,-0.006 0.3606,-69.612 0.8957,0.004 z m 11.8824,0.061 -0.8965,-0.004 -0.3566,69.611 0.8949,0.008 0.3582,-69.615 z m 11.885196,0.06 -0.8961,-0.002 -0.3578,69.616 0.8953,0 0.3586,-69.614 z m 11.8832,0.065 -0.8965,-0.008 -0.357,69.617 0.8964,0.004 0.3571,-69.613 z m 11.8855,0.058 -0.3601,69.614 -0.8957,-0.002 0.3586,-69.614 0.8972,0.002 z m 11.8841,0.063 -0.357,69.615 -0.899,-0.008 0.36,-69.613 0.896,0.006 z m 11.885,0.06 -0.36,69.614 -0.896,-0.004 0.359,-69.611 0.897,10e-4 z m 11.884,0.063 -0.895,-0.006 -0.361,69.615 0.896,0.004 0.36,-69.613 z m 11.884,0.061 -0.896,-0.004 -0.361,69.613 0.897,0.004 0.36,-69.613 z m 11.885,0.062 -0.896,-0.006 -0.359,69.617 0.894,0 0.361,-69.611 z m 11.883,0.061 -0.358,69.613 -0.897,-0.004 0.358,-69.615 0.897,0.006 z m 11.884,0.06 -0.36,69.615 -0.897,-0.004 0.361,-69.613 0.896,0.002 z m 11.886,0.063 -0.362,69.613 -0.896,-0.004 0.361,-69.615 0.897,0.006 z m 11.884,0.06 -0.898,-0.002 -0.358,69.611 0.896,0.004 0.36,-69.613 z m 11.882,0.063 -0.895,-0.006 -0.358,69.615 0.897,0.004 0.356,-69.613 z m 11.883,0.062 -0.894,-0.008 -0.359,69.614 0.897,0.005 0.356,-69.611 z m 11.887,0.061 -0.361,69.611 -0.897,-0.002 0.362,-69.613 0.896,0.004 z m 11.882,0.06 -0.359,69.613 -0.894,-0.003 0.357,-69.616 0.896,0.006 z m 11.886,0.061 -0.361,69.613 -0.892,-0.004 0.357,-69.613 0.896,0.004 z m 11.524,69.677 0.358,-69.615 -0.895,-0.006 -0.359,69.616 0.896,0.005" />
      <path
         id="path4454"
         style="fill:#100f0d;fill-opacity:1;fill-rule:nonzero;stroke:none"
         d="m 83.212854,307.72657 -0.3606,69.613 -0.8964,-0.007 0.3613,-69.61 0.8957,0.004 z m 11.8832,0.061 -0.8957,-0.004 -0.3594,69.613 0.8961,0.006 0.359,-69.615 z m 11.884396,0.062 -0.8961,-0.006 -0.359,69.616 0.8949,0.003 0.3602,-69.613 z m 11.8828,0.061 -0.8961,-0.006 -0.3563,69.615 0.8938,0.002 0.3586,-69.611 z m 11.8859,0.06 -0.3605,69.616 -0.8949,-0.006 0.3601,-69.616 0.8953,0.006 z m 11.8843,0.061 -0.359,69.617 -0.896,-0.006 0.359,-69.615 0.896,0.004 z m 11.884,0.064 -0.36,69.614 -0.895,-0.008 0.359,-69.61 0.896,0.004 z m 11.884,0.059 -0.895,-0.002 -0.36,69.609 0.896,0.008 0.359,-69.615 z m 11.883,0.062 -0.893,-0.003 -0.36,69.615 0.896,0.002 0.357,-69.614 z m 11.886,0.065 -0.895,-0.01 -0.362,69.615 0.899,0.004 0.358,-69.609 z m 11.883,0.058 -0.359,69.614 -0.896,-0.006 0.36,-69.611 0.895,0.003 z m 11.886,0.065 -0.361,69.609 -0.894,-0.004 0.357,-69.613 0.898,0.008 z m 11.883,0.059 -0.361,69.613 -0.895,-0.004 0.36,-69.613 0.896,0.004 z m 11.886,0.06 -0.896,-0.002 -0.362,69.611 0.897,0.006 0.361,-69.615 z m 11.884,0.063 -0.896,-0.004 -0.362,69.611 0.899,0.006 0.359,-69.613 z m 11.882,0.06 -0.897,-0.004 -0.359,69.611 0.898,0.01 0.358,-69.617 z m 11.886,0.061 -0.36,69.615 -0.896,-0.006 0.359,-69.613 0.897,0.004 z m 11.882,0.06 -0.358,69.613 -0.898,-0.003 0.362,-69.614 0.894,0.004 z m 11.886,0.063 -0.361,69.613 -0.895,-0.004 0.361,-69.613 0.895,0.004 z m 11.524,69.677 0.36,-69.615 -0.899,-0.006 -0.355,69.614 0.894,0.007" />
      <path
         id="path4456"
         style="fill:#100f0d;fill-opacity:1;fill-rule:evenodd;stroke:none"
         d="m 78.178854,377.31657 7.4531,0.039 0.2246,-43.234 -7.4546,-0.039 -0.2231,43.234" />
      <path
         id="path4458"
         style="fill:#100f0d;fill-opacity:1;fill-rule:evenodd;stroke:none"
         d="m 160.62445,377.74257 7.451,0.039 0.226,-43.233 -7.454,-0.041 -0.223,43.235" />
      <path
         id="path4460"
         style="fill:#100f0d;fill-opacity:1;fill-rule:evenodd;stroke:none"
         d="m 243.81345,378.17157 7.453,0.038 0.224,-43.233 -7.456,-0.037 -0.221,43.232" />
      <path
         id="path4462"
         style="fill:#100f0d;fill-opacity:1;fill-rule:evenodd;stroke:none"
         d="m 113.60545,377.49857 7.4535,0.041 0.223,-43.233 -7.4543,-0.039 -0.2222,43.231" />
      <path
         id="path4464"
         style="fill:#100f0d;fill-opacity:1;fill-rule:evenodd;stroke:none"
         d="m 196.04845,377.92357 7.453,0.039 0.224,-43.23 -7.452,-0.041 -0.225,43.232" />
      <path
         id="path4466"
         style="fill:#100f0d;fill-opacity:1;fill-rule:evenodd;stroke:none"
         d="m 279.23745,378.35357 7.454,0.037 0.225,-43.226 -7.456,-0.041 -0.223,43.23" />
      <path
         id="path4468"
         style="fill:#100f0d;fill-opacity:1;fill-rule:evenodd;stroke:none"
         d="m 79.269854,378.41457 5.175,0.025 0.218,-41.9 -5.177,-0.026 -0.216,41.901" />
      <path
         id="path4470"
         style="fill:#100f0d;fill-opacity:1;fill-rule:evenodd;stroke:none"
         d="m 161.71445,378.84157 5.176,0.026 0.216,-41.904 -5.176,-0.028 -0.216,41.906" />
      <path
         id="path4472"
         style="fill:#100f0d;fill-opacity:1;fill-rule:evenodd;stroke:none"
         d="m 244.90445,379.26957 5.175,0.027 0.217,-41.902 -5.177,-0.027 -0.215,41.902" />
      <path
         id="path4474"
         style="fill:#100f0d;fill-opacity:1;fill-rule:evenodd;stroke:none"
         d="m 114.69405,378.59557 5.177,0.03 0.2172,-41.907 -5.1774,-0.023 -0.2168,41.9" />
      <path
         id="path4476"
         style="fill:#100f0d;fill-opacity:1;fill-rule:evenodd;stroke:none"
         d="m 197.13845,379.02157 5.176,0.029 0.215,-41.904 -5.175,-0.025 -0.216,41.9" />
      <path
         id="path4478"
         style="fill:#100f0d;fill-opacity:1;fill-rule:evenodd;stroke:none"
         d="m 280.32545,379.45357 5.18,0.025 0.214,-41.9 -5.177,-0.028 -0.217,41.903" />
      <path
         id="path4480"
         style="fill:#100f0d;fill-opacity:1;fill-rule:evenodd;stroke:none"
         d="m 79.269854,378.41457 0.4949,0.002 0.2149,-41.903 -0.4938,0 -0.216,41.901" />
      <path
         id="path4482"
         style="fill:#100f0d;fill-opacity:1;fill-rule:evenodd;stroke:none"
         d="m 161.71445,378.84157 0.492,0 0.219,-41.902 -0.495,-0.004 -0.216,41.906" />
      <path
         id="path4484"
         style="fill:#100f0d;fill-opacity:1;fill-rule:evenodd;stroke:none"
         d="m 244.90445,379.26957 0.493,0.006 0.215,-41.904 -0.493,-0.004 -0.215,41.902" />
      <path
         id="path4486"
         style="fill:#100f0d;fill-opacity:1;fill-rule:evenodd;stroke:none"
         d="m 114.69405,378.59557 0.4926,0.004 0.2168,-41.902 -0.4926,-0.002 -0.2168,41.9" />
      <path
         id="path4488"
         style="fill:#100f0d;fill-opacity:1;fill-rule:evenodd;stroke:none"
         d="m 197.13845,379.02157 0.492,0.004 0.216,-41.902 -0.492,-0.002 -0.216,41.9" />
      <path
         id="path4490"
         style="fill:#100f0d;fill-opacity:1;fill-rule:evenodd;stroke:none"
         d="m 280.32545,379.45357 0.497,0 0.216,-41.901 -0.496,-0.002 -0.217,41.903" />
      <path
         id="path4492"
         style="fill:#100f0d;fill-opacity:1;fill-rule:evenodd;stroke:none"
         d="m 84.389054,378.43957 0.4925,0.006 0.2172,-41.904 -0.4925,-0.002 -0.2172,41.9" />
      <path
         id="path4494"
         style="fill:#100f0d;fill-opacity:1;fill-rule:evenodd;stroke:none"
         d="m 166.83145,378.86757 0.495,0.002 0.216,-41.903 -0.494,-0.002 -0.217,41.903" />
      <path
         id="path4496"
         style="fill:#100f0d;fill-opacity:1;fill-rule:evenodd;stroke:none"
         d="m 250.02245,379.29657 0.495,0.002 0.215,-41.902 -0.495,-0.002 -0.215,41.902" />
      <path
         id="path4498"
         style="fill:#100f0d;fill-opacity:1;fill-rule:evenodd;stroke:none"
         d="m 120.17265,378.62757 0.4937,0.001 0.2152,-41.902 -0.4937,-0.002 -0.2152,41.903" />
      <path
         id="path4500"
         style="fill:#100f0d;fill-opacity:1;fill-rule:evenodd;stroke:none"
         d="m 202.61645,379.05257 0.492,-0.002 0.218,-41.898 -0.493,-0.004 -0.217,41.904" />
      <path
         id="path4502"
         style="fill:#100f0d;fill-opacity:1;fill-rule:evenodd;stroke:none"
         d="m 285.80545,379.48057 0.494,0.002 0.217,-41.902 -0.495,0 -0.216,41.9" />
      <path
         id="path4504"
         style="fill:#100f0d;fill-opacity:1;fill-rule:evenodd;stroke:none"
         d="m 89.905054,377.37557 7.4551,0.039 0.2226,-43.231 -7.4535,-0.039 -0.2242,43.231" />
      <path
         id="path4506"
         style="fill:#100f0d;fill-opacity:1;fill-rule:evenodd;stroke:none"
         d="m 172.34945,377.80057 7.452,0.039 0.225,-43.23 -7.454,-0.041 -0.223,43.232" />
      <path
         id="path4508"
         style="fill:#100f0d;fill-opacity:1;fill-rule:evenodd;stroke:none"
         d="m 255.54045,378.23057 7.451,0.039 0.224,-43.23 -7.453,-0.039 -0.222,43.23" />
      <path
         id="path4510"
         style="fill:#100f0d;fill-opacity:1;fill-rule:evenodd;stroke:none"
         d="m 125.33005,377.56057 7.4544,0.037 0.223,-43.232 -7.4536,-0.037 -0.2238,43.232" />
      <path
         id="path4512"
         style="fill:#100f0d;fill-opacity:1;fill-rule:evenodd;stroke:none"
         d="m 207.77345,377.98657 7.453,0.037 0.224,-43.232 -7.453,-0.039 -0.224,43.234" />
      <path
         id="path4514"
         style="fill:#100f0d;fill-opacity:1;fill-rule:evenodd;stroke:none"
         d="m 290.96545,378.41457 7.45,0.039 0.225,-43.231 -7.454,-0.039 -0.221,43.231" />
      <path
         id="path4516"
         style="fill:#100f0d;fill-opacity:1;fill-rule:evenodd;stroke:none"
         d="m 137.44345,377.62157 7.453,0.039 0.222,-43.233 -7.452,-0.039 -0.223,43.233" />
      <path
         id="path4518"
         style="fill:#100f0d;fill-opacity:1;fill-rule:evenodd;stroke:none"
         d="m 219.88445,378.04857 7.455,0.038 0.223,-43.233 -7.454,-0.037 -0.224,43.232" />
      <path
         id="path4520"
         style="fill:#100f0d;fill-opacity:1;fill-rule:evenodd;stroke:none"
         d="m 303.07845,378.47857 7.451,0.037 0.225,-43.23 -7.455,-0.041 -0.221,43.234" />
      <path
         id="path4522"
         style="fill:#100f0d;fill-opacity:1;fill-rule:evenodd;stroke:none"
         d="m 90.996454,378.47457 5.1758,0.026 0.214,-41.901 -5.1758,-0.029 -0.214,41.904" />
      <path
         id="path4524"
         style="fill:#100f0d;fill-opacity:1;fill-rule:evenodd;stroke:none"
         d="m 173.43845,378.90257 5.178,0.025 0.214,-41.902 -5.176,-0.029 -0.216,41.906" />
      <path
         id="path4526"
         style="fill:#100f0d;fill-opacity:1;fill-rule:evenodd;stroke:none"
         d="m 256.62845,379.33057 5.177,0.029 0.215,-41.904 -5.175,-0.028 -0.217,41.903" />
      <path
         id="path4528"
         style="fill:#100f0d;fill-opacity:1;fill-rule:evenodd;stroke:none"
         d="m 126.42065,378.66057 5.1754,0.025 0.2154,-41.904 -5.1736,-0.027 -0.2172,41.906" />
      <path
         id="path4530"
         style="fill:#100f0d;fill-opacity:1;fill-rule:evenodd;stroke:none"
         d="m 208.86345,379.08457 5.176,0.027 0.218,-41.904 -5.179,-0.026 -0.215,41.903" />
      <path
         id="path4532"
         style="fill:#100f0d;fill-opacity:1;fill-rule:evenodd;stroke:none"
         d="m 292.05445,379.51357 5.174,0.026 0.217,-41.903 -5.174,-0.023 -0.217,41.9" />
      <path
         id="path4534"
         style="fill:#100f0d;fill-opacity:1;fill-rule:evenodd;stroke:none"
         d="m 138.53345,378.72057 5.174,0.028 0.217,-41.905 -5.176,-0.025 -0.215,41.902" />
      <path
         id="path4536"
         style="fill:#100f0d;fill-opacity:1;fill-rule:evenodd;stroke:none"
         d="m 220.97645,379.14657 5.177,0.025 0.217,-41.902 -5.178,-0.027 -0.216,41.904" />
      <path
         id="path4538"
         style="fill:#100f0d;fill-opacity:1;fill-rule:evenodd;stroke:none"
         d="m 304.16645,379.57457 5.176,0.029 0.214,-41.902 -5.173,-0.029 -0.217,41.902" />
      <path
         id="path4540"
         style="fill:#100f0d;fill-opacity:1;fill-rule:evenodd;stroke:none"
         d="m 90.996454,378.47457 0.4926,0.004 0.2164,-41.902 -0.495,-0.006 -0.214,41.904" />
      <path
         id="path4542"
         style="fill:#100f0d;fill-opacity:1;fill-rule:evenodd;stroke:none"
         d="m 173.43845,378.90257 0.493,0.002 0.218,-41.902 -0.495,-0.006 -0.216,41.906" />
      <path
         id="path4544"
         style="fill:#100f0d;fill-opacity:1;fill-rule:evenodd;stroke:none"
         d="m 256.62845,379.33057 0.493,0.002 0.216,-41.901 -0.492,-0.004 -0.217,41.903" />
      <path
         id="path4546"
         style="fill:#100f0d;fill-opacity:1;fill-rule:evenodd;stroke:none"
         d="m 126.42065,378.66057 0.4941,0.002 0.2161,-41.905 -0.493,-0.003 -0.2172,41.906" />
      <path
         id="path4548"
         style="fill:#100f0d;fill-opacity:1;fill-rule:evenodd;stroke:none"
         d="m 208.86345,379.08457 0.493,0.002 0.217,-41.903 -0.495,-0.002 -0.215,41.903" />
      <path
         id="path4550"
         style="fill:#100f0d;fill-opacity:1;fill-rule:evenodd;stroke:none"
         d="m 292.05445,379.51357 0.492,0.002 0.217,-41.902 -0.492,0 -0.217,41.9" />
      <path
         id="path4552"
         style="fill:#100f0d;fill-opacity:1;fill-rule:evenodd;stroke:none"
         d="m 138.53345,378.72057 0.493,0.002 0.215,-41.9 -0.493,-0.004 -0.215,41.902" />
      <path
         id="path4554"
         style="fill:#100f0d;fill-opacity:1;fill-rule:evenodd;stroke:none"
         d="m 220.97645,379.14657 0.495,0.006 0.213,-41.904 -0.492,-0.006 -0.216,41.904" />
      <path
         id="path4556"
         style="fill:#100f0d;fill-opacity:1;fill-rule:evenodd;stroke:none"
         d="m 304.16645,379.57457 0.492,0.006 0.217,-41.905 -0.492,-0.003 -0.217,41.902" />
      <path
         id="path4558"
         style="fill:#100f0d;fill-opacity:1;fill-rule:evenodd;stroke:none"
         d="m 96.113254,378.50257 0.4933,0.001 0.218,-41.902 -0.4941,-0.004 -0.2172,41.905" />
      <path
         id="path4560"
         style="fill:#100f0d;fill-opacity:1;fill-rule:evenodd;stroke:none"
         d="m 178.55645,378.92757 0.496,0.004 0.215,-41.904 -0.493,-0.004 -0.218,41.904" />
      <path
         id="path4562"
         style="fill:#100f0d;fill-opacity:1;fill-rule:evenodd;stroke:none"
         d="m 261.74845,379.35757 0.493,0 0.216,-41.9 -0.493,-0.002 -0.216,41.902" />
      <path
         id="path4564"
         style="fill:#100f0d;fill-opacity:1;fill-rule:evenodd;stroke:none"
         d="m 131.53825,378.68557 0.4952,0.002 0.217,-41.904 -0.496,-0.002 -0.2162,41.904" />
      <path
         id="path4566"
         style="fill:#100f0d;fill-opacity:1;fill-rule:evenodd;stroke:none"
         d="m 213.98145,379.11157 0.497,0.002 0.216,-41.902 -0.495,-0.006 -0.218,41.906" />
      <path
         id="path4568"
         style="fill:#100f0d;fill-opacity:1;fill-rule:evenodd;stroke:none"
         d="m 297.17045,379.53957 0.495,0.004 0.218,-41.905 -0.494,0 -0.219,41.901" />
      <path
         id="path4570"
         style="fill:#100f0d;fill-opacity:1;fill-rule:evenodd;stroke:none"
         d="m 143.65045,378.74657 0.495,0.004 0.217,-41.901 -0.494,-0.004 -0.218,41.901" />
      <path
         id="path4572"
         style="fill:#100f0d;fill-opacity:1;fill-rule:evenodd;stroke:none"
         d="m 226.09545,379.17357 0.493,0.002 0.218,-41.904 -0.495,-0.002 -0.216,41.904" />
      <path
         id="path4574"
         style="fill:#100f0d;fill-opacity:1;fill-rule:evenodd;stroke:none"
         d="m 309.28345,379.60157 0.496,0.004 0.215,-41.904 -0.494,-0.002 -0.217,41.902" />
      <path
         id="path4576"
         style="fill:#100f0d;fill-opacity:1;fill-rule:evenodd;stroke:none"
         d="m 319.73045,308.94957 -250.043396,-1.291 -0.0152,3.234 250.041596,1.291 0.017,-3.234" />
      <path
         id="path4578"
         style="fill:#100f0d;fill-opacity:1;fill-rule:evenodd;stroke:none"
         d="m 82.496054,307.72257 -0.8957,-0.004 -0.0172,3.233 0.8949,0.006 0.018,-3.235 z m 11.8824,0.061 -0.8965,-0.004 -0.0144,3.236 0.8957,0.004 0.0152,-3.236 z m 11.885196,0.06 -0.8961,-0.002 -0.0153,3.235 0.8946,0.004 0.0168,-3.237 z m 11.8832,0.065 -0.8965,-0.008 -0.0129,3.236 0.8945,0.008 0.0149,-3.236 z m 11.8855,0.058 -0.8972,-0.002 -0.0153,3.233 0.8938,0.004 0.0187,-3.235 z m 11.8841,0.063 -0.896,-0.006 -0.016,3.236 0.897,0.006 0.015,-3.236 z m 11.885,0.06 -0.897,-10e-4 -0.016,3.234 0.895,0.004 0.018,-3.237 z m 11.884,0.063 -0.895,-0.006 -0.017,3.236 0.896,0.006 0.016,-3.236 z m 11.884,0.061 -0.896,-0.004 -0.015,3.238 0.894,0 0.017,-3.234 z m 11.885,0.062 -0.896,-0.006 -0.019,3.237 0.897,0.003 0.018,-3.234 z m 11.883,0.061 -0.897,-0.006 -0.017,3.238 0.897,0.006 0.017,-3.238 z m 11.884,0.06 -0.896,-0.002 -0.018,3.233 0.895,0.007 0.019,-3.238 z m 11.886,0.063 -0.897,-0.006 -0.016,3.238 0.895,0.006 0.018,-3.238 z m 11.884,0.06 -0.898,-0.002 -0.015,3.233 0.898,0.006 0.015,-3.237 z m 11.882,0.063 -0.895,-0.006 -0.016,3.238 0.894,0.002 0.017,-3.234 z m 11.883,0.062 -0.894,-0.008 -0.015,3.239 0.894,0.004 0.015,-3.235 z m 11.887,0.061 -0.896,-0.004 -0.017,3.234 0.896,0.002 0.017,-3.232 z m 11.882,0.06 -0.896,-0.006 -0.016,3.239 0.896,0.004 0.016,-3.237 z m 11.886,0.061 -0.896,-0.004 -0.017,3.234 0.896,0.008 0.017,-3.238 z m 11.882,0.062 -0.895,-0.006 -0.015,3.237 0.894,0.004 0.016,-3.235" />
      <path
         id="path4580"
         style="fill:#ffffff;fill-opacity:1;fill-rule:evenodd;stroke:none"
         d="m 65.846054,399.35557 256.798396,1.328 c 2.475,0.01 4.51,-2.002 4.526,-4.482 l 0.006,-1.492 c -0.014,2.48 -2.049,4.49 -4.526,4.482 l -256.796196,-1.328 c -2.4758,-0.012 -4.491,-2.049 -4.4797,-4.524 l -0.0066,1.493 c -0.0125,2.474 2.0008,4.509 4.4781,4.523" />
      <path
         id="path4582"
         style="fill:#ffffff;fill-opacity:1;fill-rule:evenodd;stroke:none"
         d="m 75.285454,393.80057 c 2.1231,0.012 3.8536,-1.646 3.8614,-3.701 0.0097,-2.053 -1.7024,-3.724 -3.8254,-3.736 -2.1242,-0.008 -3.852,1.648 -3.8617,3.701 -0.011,2.053 1.7043,3.727 3.8257,3.736" />
      <path
         id="path4584"
         style="fill:#ffffff;fill-opacity:1;fill-rule:evenodd;stroke:none"
         d="m 75.290554,393.18757 c 1.7727,0.012 3.2184,-1.373 3.2258,-3.09 0.0063,-1.715 -1.4242,-3.113 -3.1973,-3.121 -1.7761,-0.01 -3.2199,1.377 -3.2285,3.092 -0.0078,1.717 1.4254,3.115 3.2,3.119" />
      <path
         id="path4586"
         style="fill:#ffffff;fill-opacity:1;fill-rule:evenodd;stroke:none"
         d="m 75.290554,392.61757 c 1.4481,0.008 2.6266,-1.121 2.634,-2.522 0.0051,-1.402 -1.1617,-2.543 -2.6101,-2.545 -1.4469,-0.009 -2.6258,1.12 -2.6309,2.52 -0.0051,1.398 1.1617,2.541 2.607,2.547" />
      <path
         id="path4588"
         style="fill:#100f0d;fill-opacity:1;fill-rule:evenodd;stroke:none"
         d="m 79.135854,389.78957 c 0.0098,-0.102 0.0153,-0.207 0.0145,-0.311 0.0086,-2.057 -1.7031,-3.725 -3.8274,-3.734 -2.1226,-0.008 -3.8511,1.644 -3.8613,3.699 0.002,0.102 0.0051,0.209 0.0117,0.309 0.1731,-1.905 1.8305,-3.397 3.8481,-3.389 2.0148,0.012 3.6582,1.517 3.8144,3.426" />
      <path
         id="path4590"
         style="fill:#ffffff;fill-opacity:1;fill-rule:evenodd;stroke:none"
         d="m 89.896854,393.27757 c 1.9,0.012 3.4469,-1.525 3.4554,-3.424 0.0094,-1.898 -1.5246,-3.445 -3.4222,-3.455 -1.9004,-0.008 -3.4469,1.525 -3.4547,3.424 -0.0082,1.898 1.523,3.447 3.4215,3.455" />
      <path
         id="path4592"
         style="fill:#ffffff;fill-opacity:1;fill-rule:evenodd;stroke:none"
         d="m 89.903054,392.27557 c 1.3438,0.008 2.4418,-1.078 2.4477,-2.428 0.0078,-1.345 -1.0781,-2.439 -2.4266,-2.449 -1.3441,-0.006 -2.4426,1.082 -2.4476,2.43 -0.0071,1.345 1.0785,2.439 2.4265,2.447" />
      <path
         id="path4594"
         style="fill:#ffffff;fill-opacity:1;fill-rule:evenodd;stroke:none"
         d="m 103.41875,393.33757 c 1.8984,0.008 3.4457,-1.525 3.455,-3.423 0.008,-1.901 -1.525,-3.446 -3.4234,-3.453 -1.8984,-0.01 -3.4434,1.523 -3.453896,3.421 -0.0082,1.901 1.523396,3.444 3.422296,3.455" />
      <path
         id="path4596"
         style="fill:#ffffff;fill-opacity:1;fill-rule:evenodd;stroke:none"
         d="m 103.42455,392.33757 c 1.3445,0.004 2.4426,-1.084 2.4484,-2.425 0.005,-1.348 -1.0812,-2.446 -2.4273,-2.451 -1.3457,-0.006 -2.4426,1.082 -2.4477,2.427 -0.008,1.344 1.0809,2.444 2.4266,2.449" />
    </g>
  </g>
</svg>
