<?xml version="1.0" encoding="UTF-8" standalone="no"?>
<svg
   xmlns:dc="http://purl.org/dc/elements/1.1/"
   xmlns:cc="http://creativecommons.org/ns#"
   xmlns:rdf="http://www.w3.org/1999/02/22-rdf-syntax-ns#"
   xmlns:svg="http://www.w3.org/2000/svg"
   xmlns="http://www.w3.org/2000/svg"
   version="1.1"
   id="svg4812"
   viewBox="0 0 51.618895 137.83409"
   height="137.83409"
   width="51.618896">
  <defs
     id="defs4814" />
  <metadata
     id="metadata4817">
    <rdf:RDF>
      <cc:Work
         rdf:about="">
        <dc:format>image/svg+xml</dc:format>
        <dc:type
           rdf:resource="http://purl.org/dc/dcmitype/StillImage" />
        <dc:title></dc:title>
      </cc:Work>
    </rdf:RDF>
  </metadata>
  <g
     transform="translate(-400.01621,-397.44214)"
     style="opacity:1"
     id="layer6" />
  <g
     transform="translate(-400.01621,-397.44214)"
     id="layer7" />
  <g
     transform="translate(-400.01621,-397.44214)"
     id="layer8">
    <g
       transform="matrix(0.37015661,0,0,0.37015661,276.45626,300.21354)"
       id="g5979">
      <g
         style="opacity:1"
         id="g5973">
        <path
           id="path5372"
           d="m 363.74493,263.24938 33.05418,-0.58056 -8.31356,21.30032 0.51387,61.26109 c 0,0 13.81826,-15.8872 36.91278,-10.62163 23.09452,5.26557 34.17516,24.58344 34.17516,24.58344 0,0 4.87779,2.99203 5.18307,39.38476 0.30527,36.39273 0.58455,105.84473 0.58455,105.84473 0,0 -0.97905,27.91127 -19.98602,39.89917 -19.00697,11.98791 -40.58258,7.01289 -40.58258,7.01289 l -13.71087,-7.46734 -0.31145,35.18473 c 0,0 1.35046,16.36655 14.18459,27.78407 12.83412,11.41752 27.8344,27.97286 27.8344,27.97286 l -99.47854,0.22786 29.16561,-30.27075 c 0,0 9.61823,-10.39268 10.71939,-23.74686 1.10115,-13.35418 -0.55403,-102.20546 -0.55403,-102.20546 0,0 1.47584,-185.62836 -1.01139,-192.88655 -2.48724,-7.25819 -8.37916,-22.67677 -8.37916,-22.67677 z"
           style="fill:#000000;fill-opacity:1;fill-rule:evenodd;stroke:none;stroke-width:1px;stroke-linecap:butt;stroke-linejoin:miter;stroke-opacity:1" />
      </g>
      <path
         style="opacity:1;fill:#ffffff;fill-opacity:1;stroke:none;stroke-width:2.3499999;stroke-linecap:round;stroke-linejoin:miter;stroke-miterlimit:4;stroke-dasharray:none;stroke-dashoffset:0;stroke-opacity:1"
         d="m 399.8122,528.14981 c -3.63861,-3.59601 -6.43609,-7.1611 -7.82809,-12.08383 -1.20494,-4.54691 -1.6217,-10.20539 -1.54038,-14.37034 L 390.0244,387.62477 c -0.75961,-10.68642 0.22988,-19.95124 7.44232,-27.30025 11.45987,-11.65441 29.66005,-12.64151 41.31427,-1.18144 7.06786,6.96089 8.81211,16.85973 8.96788,26.95918 l 1.01038,114.22285 c 0.36666,5.87009 0.18984,10.06613 -1.11793,14.85729 -1.28214,4.69723 -2.86612,9.44178 -6.45641,13.10291 -11.46002,11.65363 -29.71881,11.32425 -41.37271,-0.1355 z"
         id="path5375" />
      <rect
         style="opacity:1;fill:#000000;fill-opacity:1;stroke:none;stroke-width:2.3499999;stroke-linecap:round;stroke-linejoin:miter;stroke-miterlimit:4;stroke-dasharray:none;stroke-dashoffset:0;stroke-opacity:1"
         id="rect5386"
         width="100.67728"
         height="14.405743"
         x="357.11148"
         y="-413.77753"
         transform="matrix(0.99995133,0.00986563,-0.01867691,-0.99982557,0,0)" />
      <rect
         transform="matrix(0.99998245,-0.00592505,-0.03446206,-0.99940601,0,0)"
         y="-451.9007"
         x="349.63156"
         height="14.405743"
         width="100.67728"
         id="rect5390"
         style="opacity:1;fill:#000000;fill-opacity:1;stroke:none;stroke-width:2.3499999;stroke-linecap:round;stroke-linejoin:miter;stroke-miterlimit:4;stroke-dasharray:none;stroke-dashoffset:0;stroke-opacity:1" />
      <rect
         style="opacity:1;fill:#000000;fill-opacity:1;stroke:none;stroke-width:2.3499999;stroke-linecap:round;stroke-linejoin:miter;stroke-miterlimit:4;stroke-dasharray:none;stroke-dashoffset:0;stroke-opacity:1"
         id="rect5392"
         width="100.67728"
         height="14.405743"
         x="348.70514"
         y="-482.65265"
         transform="matrix(0.99998086,-0.00618645,-0.03472329,-0.99939696,0,0)" />
      <ellipse
         transform="matrix(0.71301308,0.70115073,0.70115073,-0.71301308,0,0)"
         style="opacity:1;fill:#000000;fill-opacity:1;stroke:none;stroke-width:2.3499999;stroke-linecap:round;stroke-linejoin:miter;stroke-miterlimit:4;stroke-dasharray:none;stroke-dashoffset:0;stroke-opacity:1"
         id="path5394"
         cx="619.97455"
         cy="33.19355"
         rx="7.0693526"
         ry="7.3396044" />
      <ellipse
         transform="matrix(0.71301308,0.70115073,0.70115073,-0.71301308,0,0)"
         ry="7.3396044"
         rx="7.0693526"
         cy="11.470912"
         cx="641.77307"
         id="ellipse5396"
         style="opacity:1;fill:#000000;fill-opacity:1;stroke:none;stroke-width:2.3499999;stroke-linecap:round;stroke-linejoin:miter;stroke-miterlimit:4;stroke-dasharray:none;stroke-dashoffset:0;stroke-opacity:1" />
      <ellipse
         transform="matrix(0.71301308,0.70115073,0.70115073,-0.71301308,0,0)"
         style="opacity:1;fill:#000000;fill-opacity:1;stroke:none;stroke-width:2.3499999;stroke-linecap:round;stroke-linejoin:miter;stroke-miterlimit:4;stroke-dasharray:none;stroke-dashoffset:0;stroke-opacity:1"
         id="ellipse5398"
         cx="663.49567"
         cy="-10.024313"
         rx="7.0693526"
         ry="7.3396044" />
      <rect
         style="opacity:1;fill:#000000;fill-opacity:1;stroke:none;stroke-width:2.3499999;stroke-linecap:round;stroke-linejoin:miter;stroke-miterlimit:4;stroke-dasharray:none;stroke-dashoffset:0;stroke-opacity:1"
         id="rect5400"
         width="23.729683"
         height="6.5108528"
         x="405.66446"
         y="347.49722"
         ry="2.5159478"
         rx="2.5773599"
         transform="matrix(0.01593857,0.99987297,0.99987297,-0.01593857,0,0)" />
      <rect
         transform="matrix(0.01593857,0.99987297,0.99987297,-0.01593857,0,0)"
         rx="2.5773599"
         ry="2.5159478"
         y="346.9649"
         x="435.98965"
         height="6.5108528"
         width="23.729683"
         id="rect5402"
         style="opacity:1;fill:#000000;fill-opacity:1;stroke:none;stroke-width:2.3499999;stroke-linecap:round;stroke-linejoin:miter;stroke-miterlimit:4;stroke-dasharray:none;stroke-dashoffset:0;stroke-opacity:1" />
      <rect
         style="opacity:1;fill:#000000;fill-opacity:1;stroke:none;stroke-width:2.3499999;stroke-linecap:round;stroke-linejoin:miter;stroke-miterlimit:4;stroke-dasharray:none;stroke-dashoffset:0;stroke-opacity:1"
         id="rect5404"
         width="23.729683"
         height="6.5108528"
         x="467.37976"
         y="346.87952"
         ry="2.5159478"
         rx="2.5773599"
         transform="matrix(0.01593857,0.99987297,0.99987297,-0.01593857,0,0)" />
    </g>
  </g>
</svg>
