<?xml version="1.0" encoding="UTF-8" standalone="no"?>
<svg
   xmlns:dc="http://purl.org/dc/elements/1.1/"
   xmlns:cc="http://creativecommons.org/ns#"
   xmlns:rdf="http://www.w3.org/1999/02/22-rdf-syntax-ns#"
   xmlns:svg="http://www.w3.org/2000/svg"
   xmlns="http://www.w3.org/2000/svg"
   width="39.611088"
   height="108.59155"
   viewBox="0 0 39.611088 108.59154"
   id="svg8729"
   version="1.1">
  <defs
     id="defs8731" />
  <metadata
     id="metadata8734">
    <rdf:RDF>
      <cc:Work
         rdf:about="">
        <dc:format>image/svg+xml</dc:format>
        <dc:type
           rdf:resource="http://purl.org/dc/dcmitype/StillImage" />
        <dc:title></dc:title>
      </cc:Work>
    </rdf:RDF>
  </metadata>
  <g
     transform="translate(-18.328141,-50.245581)"
     style="display:inline;opacity:1"
     id="layer2">
    <g
       transform="matrix(0.51937131,0,0,0.51937131,18.328143,50.245569)"
       id="g4202">
      <path
         transform="translate(0,7.6293945e-6)"
         id="path4156"
         style="fill:#100f0d;fill-opacity:1;fill-rule:nonzero;stroke:none"
         d="m 75.57976,174.01625 c -1.90375,-9.08 -5.41625,-10.69375 -3.955,-16.10875 0,0 1.61375,-1.61125 1.17375,-2.49 -0.43875,-0.87625 -1.465,-2.92875 -2.635,-2.63375 -1.17375,0.2925 -2.05125,2.34125 -5.86125,0.43625 -3.80625,-1.90375 -5.27125,-10.1025 -5.27125,-17.2775 0,-7.1775 3.2225,-10.98375 6.1525,-10.1025 2.92875,0.87625 3.0725,-0.88125 2.48875,-1.76 -0.58625,-0.87875 -2.48875,-3.07375 -1.17,-6.8825 1.3175,-3.80625 5.1225,-10.68875 1.75375,-20.5 -3.365,-9.81 -12.1525,-16.255 -23.71875,-16.255 -1.96028,-54.26987 -1.89615,-54.20621 -2.3412,-67.65375 0,0 0.29,-0.88 1.265,-2.245 0.97625,-1.36625 1.36875,-0.7825 1.8575,-1.56125 0.48375,-0.78 1.07125,-1.85625 0.5825,-2.6375 -0.48625,-0.7775 -2.34125,0 -2.34125,-0.58375 0,-0.58625 -0.2925,-2.24625 -0.97625,-2.24625 -0.68125,0 -1.365,0.19625 -1.465,-0.78125 C 41.01986,1.7575 40.82606,0 39.74981,0 l -1.51125,0 -0.20375,0 -1.5175,0 c -1.0725,0 -1.26875,1.7575 -1.365,2.73375 -0.0975,0.9775 -0.7825,0.78125 -1.46625,0.78125 -0.68125,0 -0.975,1.66 -0.975,2.24625 0,0.58375 -1.855,-0.19375 -2.34125,0.58375 -0.49,0.78125 0.095,1.8575 0.58375,2.6375 0.4875,0.77875 0.88,0.195 1.855,1.56125 0.97625,1.365 1.26625,2.245 1.26625,2.245 -1.23828,33.50623 -0.016,0.4631 -2.34125,67.65375 -11.5675,0 -20.35375,6.445 -23.72125,16.255 -3.3675,9.81125 0.43875,16.69375 1.755,20.5 1.32,3.80875 -0.585,6.00375 -1.17,6.8825 -0.585,0.87875 -0.43875,2.63625 2.49,1.76 2.92875,-0.88125 6.15,2.925 6.15,10.1025 0,7.175 -1.46375,15.37375 -5.2725,17.2775 -3.80625,1.905 -4.68625,-0.14375 -5.8575,-0.43625 -1.1725,-0.295 -2.19625,1.7575 -2.63625,2.63375 -0.43875,0.87875 1.17375,2.49 1.17375,2.49 1.4625,5.415 -2.05125,7.02875 -3.95625,16.10875 -1.90375,9.0775 0,19.32875 7.47,26.94375 7.4675,7.6125 26.21125,8.05375 26.21125,8.05375 l 3.665,0 0.20375,0 3.66375,0 c 0,0 18.7425,-0.44125 26.21,-8.05375 7.4675,-7.615 9.36875,-17.86625 7.4675,-26.94375" />
      <path
         transform="translate(0,7.6293945e-6)"
         id="path4156-3"
         style="fill:#100f0d;fill-opacity:1;fill-rule:nonzero;stroke:none"
         d="m 33.526,28.7025 -5.97375,0 c 0.075,-1.88125 0.32,-3.32 -2.6725,-3.32 -1.72375,0 -3.49125,1.82 -3.49125,4.00375 0,2.1825 1.7675,3.90625 3.49125,3.90625 2.28625,0 2.6325,-1.01 2.67,-2.4425 l 5.97813,0" />
      <path
         transform="translate(0,7.6293945e-6)"
         id="path4156-3-7"
         style="fill:#100f0d;fill-opacity:1;fill-rule:nonzero;stroke:none"
         d="m 34.38001,19.05044 -5.97375,0 c 0.075,-1.88125 0.32,-3.32 -2.6725,-3.32 -1.72375,0 -3.49125,1.82 -3.49125,4.00375 0,2.1825 1.7675,3.90625 3.49125,3.90625 2.28625,0 2.6325,-1.01 2.67,-2.4425 l 5.97813,0" />
      <path
         transform="translate(0,7.6293945e-6)"
         id="path4156-3-2"
         style="fill:#100f0d;fill-opacity:1;fill-rule:nonzero;stroke:none"
         d="m 41.88725,16.1933 5.97375,0 c -0.075,-1.88125 -0.32,-3.32 2.6725,-3.32 1.72375,0 3.49125,1.82 3.49125,4.00375 0,2.1825 -1.7675,3.90625 -3.49125,3.90625 -2.28625,0 -2.6325,-1.01 -2.67,-2.4425 l -5.97813,0" />
      <path
         transform="translate(0,7.6293945e-6)"
         id="path4156-3-2-7"
         style="fill:#100f0d;fill-opacity:1;fill-rule:nonzero;stroke:none"
         d="m 41.70868,25.83616 5.97375,0 c -0.075,-1.88125 -0.32,-3.32 2.6725,-3.32 1.72375,0 3.49125,1.82 3.49125,4.00375 0,2.1825 -1.7675,3.90625 -3.49125,3.90625 -2.28625,0 -2.6325,-1.01 -2.67,-2.4425 l -5.97813,0" />
      <path
         transform="translate(0,7.6293945e-6)"
         style="fill:none;fill-rule:evenodd;stroke:#ffffff;stroke-width:1px;stroke-linecap:butt;stroke-linejoin:miter;stroke-opacity:1"
         d="m 35.09792,27.36401 -1.859233,141.1434"
         id="path9352" />
      <path
         transform="translate(0,7.6293945e-6)"
         style="fill:none;fill-rule:evenodd;stroke:#ffffff;stroke-width:1px;stroke-linecap:butt;stroke-linejoin:miter;stroke-opacity:1"
         d="M 37.50862,18.25688 36.628907,168.38115"
         id="path9352-1" />
      <path
         transform="translate(0,7.6293945e-6)"
         style="fill:none;fill-rule:evenodd;stroke:#ffffff;stroke-width:1px;stroke-linecap:butt;stroke-linejoin:miter;stroke-opacity:1"
         d="M 41.61577,25.22116 42.836677,168.5444"
         id="path9352-1-8" />
      <path
         transform="translate(0,7.6293945e-6)"
         style="fill:none;fill-rule:evenodd;stroke:#ffffff;stroke-width:1px;stroke-linecap:butt;stroke-linejoin:miter;stroke-opacity:1"
         d="m 39.47292,12.81045 0.872727,155.64467"
         id="path9352-1-8-4" />
      <rect
         transform="translate(0,7.6293945e-6)"
         style="opacity:1;fill:#ffffff;fill-opacity:1;stroke:#000000;stroke-width:0.75700003;stroke-linecap:round;stroke-linejoin:miter;stroke-miterlimit:4;stroke-dasharray:none;stroke-dashoffset:0;stroke-opacity:1"
         id="rect9399"
         width="17.278751"
         height="2.2787511"
         x="29.494308"
         y="150.20657" />
      <path
         style="opacity:1;fill:#ffffff;fill-opacity:1;stroke:none;stroke-width:0.60600001;stroke-linecap:round;stroke-linejoin:miter;stroke-miterlimit:4;stroke-dasharray:none;stroke-dashoffset:0;stroke-opacity:1"
         d="m 27.908203,136.26562 c -0.617133,-0.0325 -1.251845,0.0799 -1.78125,0.3125 -1.074499,0.47208 -1.730568,1.67538 -2.193359,2.75391 -1.070573,2.49496 -0.78907,5.37379 -1.121094,8.06836 -0.371729,3.0168 -0.255617,6.11305 -0.974609,9.06641 -0.249451,1.02465 -0.497696,2.11783 -1.146485,2.94922 -0.544996,0.69839 -1.470389,1.53016 -2.167968,1.53515 -0.68486,0.005 -1.31022,-0.83503 -1.570313,-1.60156 a 1.9010575,1.9010575 0 0 0 0.984375,-1.66406 1.9010575,1.9010575 0 0 0 -1.900391,-1.90235 1.9010575,1.9010575 0 0 0 -1.90039,1.90235 1.9010575,1.9010575 0 0 0 0.18164,0.80468 c 0.584771,2.05082 2.312876,3.52913 4.136719,3.58789 1.97588,0.0637 3.596056,-2.0229 4.625,-3.71093 1.915633,-3.14267 1.885792,-7.13918 2.19336,-10.82031 0.248053,-2.96887 -0.416236,-7.46739 1.828124,-9.79883 0.341841,-0.35511 0.958011,-0.49599 1.462891,-0.21875 0.228138,0.12527 0.362754,0.48392 0.449219,0.83593 a 1.2064403,1.4136069 0 0 0 -0.521484,1.16211 1.2064403,1.4136069 0 0 0 1.205078,1.41407 1.2064403,1.4136069 0 0 0 1.207031,-1.41407 1.2064403,1.4136069 0 0 0 -0.658203,-1.25781 c -0.104902,-0.5231 -0.280995,-1.16499 -0.658203,-1.44726 -0.462964,-0.34646 -1.062555,-0.52418 -1.679688,-0.55665 z"
         transform="translate(0,-7.6293945e-6)"
         id="path4165" />
      <path
         id="path4177"
         d="m 48.36079,136.26561 c 0.617133,-0.0325 1.251845,0.0799 1.78125,0.3125 1.074499,0.47208 1.730568,1.67538 2.193359,2.75391 1.070573,2.49496 0.78907,5.37379 1.121094,8.06836 0.371729,3.0168 0.255617,6.11305 0.974609,9.06641 0.249451,1.02465 0.497696,2.11783 1.146485,2.94922 0.544996,0.69839 1.470389,1.53016 2.167968,1.53515 0.68486,0.005 1.31022,-0.83503 1.570313,-1.60156 a 1.9010575,1.9010575 0 0 1 -0.984375,-1.66406 1.9010575,1.9010575 0 0 1 1.900391,-1.90235 1.9010575,1.9010575 0 0 1 1.90039,1.90235 1.9010575,1.9010575 0 0 1 -0.18164,0.80468 c -0.584771,2.05082 -2.312876,3.52913 -4.136719,3.58789 -1.97588,0.0637 -3.596056,-2.0229 -4.625,-3.71093 -1.915633,-3.14267 -1.885792,-7.13918 -2.19336,-10.82031 -0.248053,-2.96887 0.416236,-7.46739 -1.828124,-9.79883 -0.341841,-0.35511 -0.958011,-0.49599 -1.462891,-0.21875 -0.228138,0.12527 -0.362754,0.48392 -0.449219,0.83593 a 1.2064403,1.4136069 0 0 1 0.521484,1.16211 1.2064403,1.4136069 0 0 1 -1.205078,1.41407 1.2064403,1.4136069 0 0 1 -1.207031,-1.41407 1.2064403,1.4136069 0 0 1 0.658203,-1.25781 c 0.104902,-0.5231 0.280995,-1.16499 0.658203,-1.44726 0.462964,-0.34646 1.062555,-0.52418 1.679688,-0.55665 z"
         style="opacity:1;fill:#ffffff;fill-opacity:1;stroke:none;stroke-width:0.60600001;stroke-linecap:round;stroke-linejoin:miter;stroke-miterlimit:4;stroke-dasharray:none;stroke-dashoffset:0;stroke-opacity:1" />
      <path
         style="opacity:1;fill:#ffffff;fill-opacity:1;stroke:none;stroke-width:0.60600001;stroke-linecap:round;stroke-linejoin:miter;stroke-miterlimit:4;stroke-dasharray:none;stroke-dashoffset:0;stroke-opacity:1"
         d="m 30.745424,166.75602 14.545481,-0.20681 c -4.391029,12.88515 -4.689501,27.99633 -5.032323,42.53347 l -4.618708,-0.13787 c -0.654557,-15.29042 0.291268,-31.6038 -4.89445,-42.18879 z"
         id="rect4179" />
    </g>
  </g>
</svg>
