<?xml version="1.0" encoding="UTF-8" standalone="no"?>
<svg
   xmlns:dc="http://purl.org/dc/elements/1.1/"
   xmlns:cc="http://creativecommons.org/ns#"
   xmlns:rdf="http://www.w3.org/1999/02/22-rdf-syntax-ns#"
   xmlns:svg="http://www.w3.org/2000/svg"
   xmlns="http://www.w3.org/2000/svg"
   version="1.1"
   id="svg8729"
   viewBox="0 0 76.267372 209.01374"
   height="58.988323mm"
   width="21.524347mm">
  <defs
     id="defs8731" />
  <metadata
     id="metadata8734">
    <rdf:RDF>
      <cc:Work
         rdf:about="">
        <dc:format>image/svg+xml</dc:format>
        <dc:type
           rdf:resource="http://purl.org/dc/dcmitype/StillImage" />
        <dc:title></dc:title>
      </cc:Work>
    </rdf:RDF>
  </metadata>
  <g
     transform="translate(-482.9378,-286.7839)"
     id="layer1">
    <path
       d="m 558.51756,460.80015 c -1.90375,-9.08 -5.41625,-10.69375 -3.955,-16.10875 0,0 1.61375,-1.61125 1.17375,-2.49 -0.43875,-0.87625 -1.465,-2.92875 -2.635,-2.63375 -1.17375,0.2925 -2.05125,2.34125 -5.86125,0.43625 -3.80625,-1.90375 -5.27125,-10.1025 -5.27125,-17.2775 0,-7.1775 3.2225,-10.98375 6.1525,-10.1025 2.92875,0.87625 3.0725,-0.88125 2.48875,-1.76 -0.58625,-0.87875 -2.48875,-3.07375 -1.17,-6.8825 1.3175,-3.80625 5.1225,-10.68875 1.75375,-20.5 -3.365,-9.81 -12.1525,-16.255 -23.71875,-16.255 -1.96028,-54.26987 -1.89615,-54.20621 -2.3412,-67.65375 0,0 0.29,-0.88 1.265,-2.245 0.97625,-1.36625 1.36875,-0.7825 1.8575,-1.56125 0.48375,-0.78 1.07125,-1.85625 0.5825,-2.6375 -0.48625,-0.7775 -2.34125,0 -2.34125,-0.58375 0,-0.58625 -0.2925,-2.24625 -0.97625,-2.24625 -0.68125,0 -1.365,0.19625 -1.465,-0.78125 -0.0987,-0.97625 -0.2925,-2.73375 -1.36875,-2.73375 l -1.51125,0 -0.20375,0 -1.5175,0 c -1.0725,0 -1.26875,1.7575 -1.365,2.73375 -0.0975,0.9775 -0.7825,0.78125 -1.46625,0.78125 -0.68125,0 -0.975,1.66 -0.975,2.24625 0,0.58375 -1.855,-0.19375 -2.34125,0.58375 -0.49,0.78125 0.095,1.8575 0.58375,2.6375 0.4875,0.77875 0.88,0.195 1.855,1.56125 0.97625,1.365 1.26625,2.245 1.26625,2.245 -1.23828,33.50623 -0.016,0.4631 -2.34125,67.65375 -11.5675,0 -20.35375,6.445 -23.72125,16.255 -3.3675,9.81125 0.43875,16.69375 1.755,20.5 1.32,3.80875 -0.585,6.00375 -1.17,6.8825 -0.585,0.87875 -0.43875,2.63625 2.49,1.76 2.92875,-0.88125 6.15,2.925 6.15,10.1025 0,7.175 -1.46375,15.37375 -5.2725,17.2775 -3.80625,1.905 -4.68625,-0.14375 -5.8575,-0.43625 -1.1725,-0.295 -2.19625,1.7575 -2.63625,2.63375 -0.43875,0.87875 1.17375,2.49 1.17375,2.49 1.4625,5.415 -2.05125,7.02875 -3.95625,16.10875 -1.90375,9.0775 0,19.32875 7.47,26.94375 7.4675,7.6125 26.21125,8.05375 26.21125,8.05375 l 3.665,0 0.20375,0 3.66375,0 c 0,0 18.7425,-0.44125 26.21,-8.05375 7.4675,-7.615 9.36875,-17.86625 7.4675,-26.94375"
       style="fill:#100f0d;fill-opacity:1;fill-rule:nonzero;stroke:none"
       id="path4156" />
    <path
       d="m 516.4638,315.4864 -5.97375,0 c 0.075,-1.88125 0.32,-3.32 -2.6725,-3.32 -1.72375,0 -3.49125,1.82 -3.49125,4.00375 0,2.1825 1.7675,3.90625 3.49125,3.90625 2.28625,0 2.6325,-1.01 2.67,-2.4425 l 5.97813,0"
       style="fill:#100f0d;fill-opacity:1;fill-rule:nonzero;stroke:none"
       id="path4156-3" />
    <path
       d="m 517.31781,305.83434 -5.97375,0 c 0.075,-1.88125 0.32,-3.32 -2.6725,-3.32 -1.72375,0 -3.49125,1.82 -3.49125,4.00375 0,2.1825 1.7675,3.90625 3.49125,3.90625 2.28625,0 2.6325,-1.01 2.67,-2.4425 l 5.97813,0"
       style="fill:#100f0d;fill-opacity:1;fill-rule:nonzero;stroke:none"
       id="path4156-3-7" />
    <path
       d="m 524.82505,302.9772 5.97375,0 c -0.075,-1.88125 -0.32,-3.32 2.6725,-3.32 1.72375,0 3.49125,1.82 3.49125,4.00375 0,2.1825 -1.7675,3.90625 -3.49125,3.90625 -2.28625,0 -2.6325,-1.01 -2.67,-2.4425 l -5.97813,0"
       style="fill:#100f0d;fill-opacity:1;fill-rule:nonzero;stroke:none"
       id="path4156-3-2" />
    <path
       d="m 524.64648,312.62006 5.97375,0 c -0.075,-1.88125 -0.32,-3.32 2.6725,-3.32 1.72375,0 3.49125,1.82 3.49125,4.00375 0,2.1825 -1.7675,3.90625 -3.49125,3.90625 -2.28625,0 -2.6325,-1.01 -2.67,-2.4425 l -5.97813,0"
       style="fill:#100f0d;fill-opacity:1;fill-rule:nonzero;stroke:none"
       id="path4156-3-2-7" />
    <path
       id="path9352"
       d="M 518.03572,314.14791 515.625,463.70149"
       style="fill:none;fill-rule:evenodd;stroke:#ffffff;stroke-width:1px;stroke-linecap:butt;stroke-linejoin:miter;stroke-opacity:1" />
    <path
       id="path9352-1"
       d="m 520.44642,305.04078 -1.4312,158.53445"
       style="fill:none;fill-rule:evenodd;stroke:#ffffff;stroke-width:1px;stroke-linecap:butt;stroke-linejoin:miter;stroke-opacity:1" />
    <path
       id="path9352-1-8"
       d="m 524.55357,312.00506 0.66942,151.73342"
       style="fill:none;fill-rule:evenodd;stroke:#ffffff;stroke-width:1px;stroke-linecap:butt;stroke-linejoin:miter;stroke-opacity:1" />
    <path
       id="path9352-1-8-4"
       d="m 522.41072,299.59435 0.32124,164.05485"
       style="fill:none;fill-rule:evenodd;stroke:#ffffff;stroke-width:1px;stroke-linecap:butt;stroke-linejoin:miter;stroke-opacity:1" />
    <rect
       y="436.99048"
       x="511.15402"
       height="2.2787511"
       width="17.278751"
       id="rect9399"
       style="opacity:1;fill:#ffffff;fill-opacity:1;stroke:#000000;stroke-width:0.75700003;stroke-linecap:round;stroke-linejoin:miter;stroke-miterlimit:4;stroke-dasharray:none;stroke-dashoffset:0;stroke-opacity:1" />
  </g>
</svg>
